<?xml version="1.0" encoding="iso-8859-1"?>
<!-- Generator: Adobe Illustrator 19.0.0, SVG Export Plug-In . SVG Version: 6.00 Build 0)  -->
<svg version="1.1" id="Capa_1" xmlns="http://www.w3.org/2000/svg" xmlns:xlink="http://www.w3.org/1999/xlink" x="0px" y="0px"
	 viewBox="0 0 512 512" style="enable-background:new 0 0 512 512;" xml:space="preserve">
<path style="fill:#878791;" d="M255.833,202.913l-50.447,50.447l0,0c12.216,10.659,27.88,16.532,44.092,16.532h21.368
	L255.833,202.913z"/>
<path style="fill:#737882;" d="M332.234,158.913h152.894c9.318,0,16.872,7.554,16.872,16.872v54.255
	c0,9.318-7.554,16.872-16.872,16.872h-64.727L332.234,158.913z"/>
<path style="fill:#BEBEBE;" d="M315.478,259.245l-40.871,10.194c-9.453,2.358-18.606-4.793-18.606-14.536V150.922
	c0-9.743,9.153-16.893,18.606-14.536l40.871,10.194c6.673,1.664,11.356,7.658,11.356,14.536v83.593
	C326.833,251.587,322.151,257.581,315.478,259.245z"/>
<path style="fill:#737882;" d="M114.167,246.913H26.872c-9.318,0-16.872-7.554-16.872-16.872v-54.255
	c0-9.318,7.554-16.872,16.872-16.872H202.5L114.167,246.913z"/>
<path style="fill:#878791;" d="M243.722,212.274l-54.125-55.098l0,0c15.792-13.7,35.996-21.242,56.901-21.242h23.334
	L243.722,212.274z"/>
<g>
	
		<rect x="127.184" y="164.811" transform="matrix(-0.7071 -0.7071 0.7071 -0.7071 94.4797 544.1343)" style="fill:#737882;" width="65.499" height="175.378"/>
	<polygon style="fill:#737882;" points="328.833,249.323 455.58,376.069 501.894,329.755 323.901,151.762 	"/>
</g>
<path d="M512,230.041v-54.255c0-14.817-12.055-26.873-26.872-26.873H335.194l-4.222-4.222c-0.425-0.425-0.883-0.795-1.359-1.127
	c-3.138-3.175-7.136-5.544-11.716-6.686l-40.871-10.194c-2.304-0.575-4.634-0.814-6.935-0.737c-0.087-0.002-0.171-0.013-0.258-0.013
	h-23.334c-22.939,0-45.117,8.162-62.598,22.979H26.873C12.055,148.913,0,160.968,0,175.785v54.255
	c0,14.817,12.055,26.872,26.873,26.872h68.19l-27.364,27.364c-3.905,3.905-3.905,10.237,0,14.143l46.314,46.314
	c1.875,1.875,4.419,2.929,7.071,2.929s5.196-1.054,7.071-2.929l78.114-78.114c12.697,8.601,27.728,13.271,43.209,13.271h21.353
	c0.031,0,0.063,0.004,0.094,0.004c2.029,0,4.076-0.248,6.101-0.753l40.872-10.194c4.1-1.022,7.74-3.023,10.71-5.708l28.745,28.744
	c1.953,1.952,4.512,2.929,7.071,2.929s5.119-0.977,7.071-2.929c3.905-3.905,3.905-10.237,0-14.143l-34.661-34.661v-64.344
	l150.918,150.918l-32.172,32.172l-31.391-31.392c-3.905-3.903-10.237-3.904-14.142,0c-3.905,3.905-3.906,10.237,0,14.143
	l38.462,38.463c1.875,1.875,4.419,2.929,7.071,2.929s5.196-1.054,7.071-2.929l46.315-46.314c1.875-1.876,2.929-4.419,2.929-7.071
	s-1.054-5.195-2.929-7.071l-65.771-65.771h41.933C499.945,256.913,512,244.858,512,230.041z M246.499,145.934h0.006
	c-0.327,1.624-0.505,3.291-0.505,4.988v47.682l-0.852,0.852l-40.437-41.164C217.092,150.268,231.596,145.934,246.499,145.934z
	 M114.167,236.913H26.873c-3.79,0-6.873-3.083-6.873-6.872v-54.255c0-3.79,3.083-6.873,6.873-6.873h156.19l-68.043,68.043
	C114.738,236.932,114.455,236.913,114.167,236.913z M121.083,323.52l-32.172-32.172l109.872-109.871l32.172,32.172L121.083,323.52z
	 M246,226.889v28.015c0,1.667,0.172,3.305,0.487,4.902c-9.104-0.478-17.922-3.119-25.734-7.67L246,226.889z M316.833,244.71
	c0,2.291-1.552,4.278-3.775,4.833l-40.872,10.194c-2.052,0.514-3.558-0.35-4.272-0.907c-0.715-0.559-1.915-1.812-1.915-3.925
	V150.922c0-2.114,1.2-3.367,1.915-3.925c0.562-0.439,1.611-1.064,3.03-1.064c0.387,0,0.802,0.047,1.242,0.156l40.872,10.194
	c2.223,0.555,3.775,2.542,3.775,4.833V244.71z M355.194,168.913h129.934c3.789,0,6.872,3.083,6.872,6.873v54.255
	c0,3.789-3.083,6.872-6.872,6.872h-61.933L355.194,168.913z"/>
<path d="M389.173,299.662c-2.63,0-5.21,1.069-7.07,2.93c-1.86,1.86-2.93,4.44-2.93,7.07s1.07,5.21,2.93,7.069
	c1.86,1.87,4.44,2.931,7.07,2.931s5.21-1.061,7.07-2.931c1.86-1.859,2.93-4.439,2.93-7.069s-1.07-5.21-2.93-7.07
	C394.383,300.731,391.803,299.662,389.173,299.662z"/>
<g>
</g>
<g>
</g>
<g>
</g>
<g>
</g>
<g>
</g>
<g>
</g>
<g>
</g>
<g>
</g>
<g>
</g>
<g>
</g>
<g>
</g>
<g>
</g>
<g>
</g>
<g>
</g>
<g>
</g>
</svg>
