<svg xmlns="http://www.w3.org/2000/svg" xmlns:xlink="http://www.w3.org/1999/xlink" xmlns:fi="http://pattern.flaticon.com/" x="0" y="0" width="700" height="350" viewBox="0 0 700 350" opacity="0.4"><rect x="0px" y="0px" width="100%" height="100%" opacity="1" fill="#fff"/><defs><g transform="matrix(0.1171875 0 0 0.1171875 250 -22.999997940063395)" id="L1_2"><path d="M255.833,202.913l-50.447,50.447l0,0c12.216,10.659,27.88,16.532,44.092,16.532h21.368  L255.833,202.913z" fill="#878791"/><path d="M332.234,158.913h152.894c9.318,0,16.872,7.554,16.872,16.872v54.255  c0,9.318-7.554,16.872-16.872,16.872h-64.727L332.234,158.913z" fill="#737882"/><path d="M315.478,259.245l-40.871,10.194c-9.453,2.358-18.606-4.793-18.606-14.536V150.922  c0-9.743,9.153-16.893,18.606-14.536l40.871,10.194c6.673,1.664,11.356,7.658,11.356,14.536v83.593  C326.833,251.587,322.151,257.581,315.478,259.245z" fill="#bebebe"/><path d="M114.167,246.913H26.872c-9.318,0-16.872-7.554-16.872-16.872v-54.255  c0-9.318,7.554-16.872,16.872-16.872H202.5L114.167,246.913z" fill="#737882"/><path d="M243.722,212.274l-54.125-55.098l0,0c15.792-13.7,35.996-21.242,56.901-21.242h23.334  L243.722,212.274z" fill="#878791"/><g><rect x="127px" y="164px" width="65px" height="175px" transform="matrix(-0.7071 -0.7071 0.7071 -0.7071 94.4797 544.1343)" fill="#737882"/><path d="M328.833,249.323 455.58,376.069 501.894,329.755 323.901,151.762z" fill="#737882"/></g><path d="M512,230.041v-54.255c0-14.817-12.055-26.873-26.872-26.873H335.194l-4.222-4.222c-0.425-0.425-0.883-0.795-1.359-1.127  c-3.138-3.175-7.136-5.544-11.716-6.686l-40.871-10.194c-2.304-0.575-4.634-0.814-6.935-0.737c-0.087-0.002-0.171-0.013-0.258-0.013  h-23.334c-22.939,0-45.117,8.162-62.598,22.979H26.873C12.055,148.913,0,160.968,0,175.785v54.255  c0,14.817,12.055,26.872,26.873,26.872h68.19l-27.364,27.364c-3.905,3.905-3.905,10.237,0,14.143l46.314,46.314  c1.875,1.875,4.419,2.929,7.071,2.929s5.196-1.054,7.071-2.929l78.114-78.114c12.697,8.601,27.728,13.271,43.209,13.271h21.353  c0.031,0,0.063,0.004,0.094,0.004c2.029,0,4.076-0.248,6.101-0.753l40.872-10.194c4.1-1.022,7.74-3.023,10.71-5.708l28.745,28.744  c1.953,1.952,4.512,2.929,7.071,2.929s5.119-0.977,7.071-2.929c3.905-3.905,3.905-10.237,0-14.143l-34.661-34.661v-64.344  l150.918,150.918l-32.172,32.172l-31.391-31.392c-3.905-3.903-10.237-3.904-14.142,0c-3.905,3.905-3.906,10.237,0,14.143  l38.462,38.463c1.875,1.875,4.419,2.929,7.071,2.929s5.196-1.054,7.071-2.929l46.315-46.314c1.875-1.876,2.929-4.419,2.929-7.071  s-1.054-5.195-2.929-7.071l-65.771-65.771h41.933C499.945,256.913,512,244.858,512,230.041z M246.499,145.934h0.006  c-0.327,1.624-0.505,3.291-0.505,4.988v47.682l-0.852,0.852l-40.437-41.164C217.092,150.268,231.596,145.934,246.499,145.934z   M114.167,236.913H26.873c-3.79,0-6.873-3.083-6.873-6.872v-54.255c0-3.79,3.083-6.873,6.873-6.873h156.19l-68.043,68.043  C114.738,236.932,114.455,236.913,114.167,236.913z M121.083,323.52l-32.172-32.172l109.872-109.871l32.172,32.172L121.083,323.52z   M246,226.889v28.015c0,1.667,0.172,3.305,0.487,4.902c-9.104-0.478-17.922-3.119-25.734-7.67L246,226.889z M316.833,244.71  c0,2.291-1.552,4.278-3.775,4.833l-40.872,10.194c-2.052,0.514-3.558-0.35-4.272-0.907c-0.715-0.559-1.915-1.812-1.915-3.925  V150.922c0-2.114,1.2-3.367,1.915-3.925c0.562-0.439,1.611-1.064,3.03-1.064c0.387,0,0.802,0.047,1.242,0.156l40.872,10.194  c2.223,0.555,3.775,2.542,3.775,4.833V244.71z M355.194,168.913h129.934c3.789,0,6.872,3.083,6.872,6.873v54.255  c0,3.789-3.083,6.872-6.872,6.872h-61.933L355.194,168.913z"/><path d="M389.173,299.662c-2.63,0-5.21,1.069-7.07,2.93c-1.86,1.86-2.93,4.44-2.93,7.07s1.07,5.21,2.93,7.069  c1.86,1.87,4.44,2.931,7.07,2.931s5.21-1.061,7.07-2.931c1.86-1.859,2.93-4.439,2.93-7.069s-1.07-5.21-2.93-7.07  C394.383,300.731,391.803,299.662,389.173,299.662z"/></g><g transform="matrix(0.1171875 0 0 0.1171875 75 149)" id="L1_4"><path d="M278.136,354.043v20.175c0,13.616,11.038,24.654,24.654,24.654h91.962  c20.574,0,38.57-13.85,43.839-33.737l7.896-29.806c2.387-9.01,1.94-18.536-1.28-27.282l-38.583-104.801L278.136,354.043z" fill="#ffcdac"/><path d="M445.208,308.045l-38.583-104.801l-0.007,0.008v109.45c0,0,25.826,7.19,32.495,18.843l5.726,10.005  l1.649-6.224C448.875,326.318,448.427,316.792,445.208,308.045z" fill="#ff5a5a"/><path d="M308.702,354.043h-20.135h-10.43v20.175c0,13.616,11.038,24.654,24.654,24.654h50.74l0,0  C353.53,374.113,333.46,354.043,308.702,354.043z" fill="#ffffff"/><g><path d="M64,224.243V310.5c0,22.272,18.055,40.327,40.327,40.327h10.976   c18.972,0,34.351-15.379,34.351-34.351V215.784L64,224.243z" fill="#ffcdac"/><path d="M149.654,219v100.692c0,18.972,15.379,34.351,34.351,34.351h16.952   c18.972,0,34.351-15.379,34.351-34.351V219H149.654z" fill="#ffcdac"/><path d="M235.309,219v100.692c0,18.972,15.379,34.351,34.351,34.351h16.952   c18.972,0,34.351-15.379,34.351-34.351V219H235.309z" fill="#ffcdac"/><path d="M320.963,219v100.692c0,18.972,15.379,34.351,34.351,34.351h8.922   c23.406,0,42.381-18.975,42.381-42.381v-91.101L320.963,219z" fill="#ffcdac"/></g><path d="M149.654,290.751L149.654,290.751c27.506-10.924,58.148-10.924,85.654,0l0,0  c27.507-10.924,58.148-10.924,85.654,0l0,0l0,0c27.506-10.924,58.148-10.924,85.654,0l0,0V187.056  c0-11.006-2.964-21.808-8.579-31.273c-12.221-20.597-35.32-32.188-59.137-29.676l-5.151,0.543  c-8.421,0.888-16.934-0.091-24.934-2.869l-12.657-4.395c-11.703-4.064-24.405-4.245-36.219-0.518l-9.696,3.059  c-12.458,3.931-25.883,3.509-38.071-1.197l0,0c-12.715-4.909-26.759-5.149-39.634-0.679l-9.432,3.275  c-8.836,3.068-18.286,3.938-27.534,2.534l0,0c-21.173-3.214-42.398,5.471-55.245,22.604l0,0C69.729,162.602,64,179.793,64,197.461  v93.29l0,0C91.507,279.827,122.148,279.827,149.654,290.751z" fill="#ff5a5a"/><path d="M448.258,367.695l7.896-29.807c2.928-11.054,2.388-22.568-1.563-33.298l-37.974-103.148v-14.386  c0-12.794-3.451-25.373-9.979-36.375c-14.17-23.883-41.177-37.435-68.787-34.518l-5.15,0.543c-6.913,0.729-14.038-0.09-20.604-2.371  l-12.657-4.395c-13.641-4.736-28.737-4.952-42.508-0.608l-9.696,3.059c-10.254,3.235-21.428,2.885-31.46-0.988  c-14.904-5.755-31.423-6.037-46.517-0.797l-9.432,3.275c-7.274,2.526-15.143,3.249-22.753,2.094  c-24.854-3.771-49.665,6.378-64.747,26.492C60.509,158.23,54,177.76,54,197.461V310.5c0,27.75,22.577,50.327,50.327,50.327h10.976  c13.115,0,24.913-5.726,33.04-14.805c8.086,10.923,21.059,18.02,35.662,18.02h16.953c13.837,0,26.211-6.373,34.351-16.334  c7.839,9.594,19.608,15.846,32.827,16.296v10.213c0,19.108,15.545,34.653,34.653,34.653h91.963  C419.833,408.871,441.835,391.938,448.258,367.695z M436.396,313.26c-5.744-4.629-12.514-7.894-19.779-9.469v-13.246  c0-0.005,0-0.01,0-0.016v-22.141v-9.056l19.206,52.168C436.037,312.082,436.214,312.672,436.396,313.26z M330.963,319.692v-21.92  c21.389-6.983,44.265-6.983,65.654,0v13.891c0,17.855-14.526,32.381-32.381,32.381h-8.922  C341.887,344.043,330.963,333.119,330.963,319.692z M74,197.461c0-15.402,5.089-30.672,14.329-42.995  c10.656-14.211,28.184-21.382,45.744-18.717c10.81,1.641,21.985,0.612,32.315-2.974l9.432-3.275  c10.627-3.69,22.259-3.491,32.752,0.561c14.247,5.5,30.116,5.999,44.681,1.404l9.695-3.059c9.696-3.058,20.325-2.907,29.931,0.428  l12.657,4.395c9.326,3.238,19.445,4.402,29.263,3.367l5.15-0.543c19.868-2.1,39.293,7.652,49.488,24.833  c4.697,7.916,7.179,16.966,7.179,26.17v40.403v40.93v8.515c-21.537-5.836-44.117-5.836-65.654,0V219c0-5.523-4.477-10-10-10  s-10,4.477-10,10v57.904c-21.537-5.836-44.117-5.836-65.654,0V219c0-5.523-4.477-10-10-10s-10,4.477-10,10v57.904  c-21.538-5.835-44.117-5.835-65.655,0V219v-3.216c0-5.523-4.477-10-10-10s-10,4.477-10,10V219v57.904  c-21.537-5.836-44.117-5.836-65.654,0v-8.515v-44.146L74,197.461L74,197.461z M115.303,340.827h-10.976  C87.604,340.827,74,327.223,74,310.5v-12.728c21.389-6.983,44.265-6.983,65.654,0v18.704  C139.654,329.903,128.73,340.827,115.303,340.827z M200.958,344.043h-16.953c-13.427,0-24.351-10.924-24.351-24.351v-3.216v-18.704  c21.389-6.983,44.265-6.983,65.655,0v21.92C225.309,333.119,214.385,344.043,200.958,344.043z M245.309,319.692v-21.92  c21.389-6.983,44.265-6.983,65.654,0v21.92c0,13.427-10.924,24.351-24.351,24.351H269.66  C256.233,344.043,245.309,333.119,245.309,319.692z M288.136,374.218v-10.197c0.144,0.006,0.285,0.022,0.43,0.022h20.135  c15.729,0,29.05,10.484,33.358,24.828h-39.27C294.709,388.871,288.136,382.298,288.136,374.218z M394.752,388.871h-32.153  c-1.742-9.408-5.882-17.983-11.778-25.055c1.478,0.149,2.976,0.227,4.493,0.227h8.922c24.608,0,45.295-17.061,50.883-39.972  c6.376,2.087,11.893,6.466,15.314,12.443l3.688,6.444l-5.197,19.615C424.823,378.057,410.771,388.871,394.752,388.871z"/><path d="M256,74c5.523,0,10-4.477,10-10V10c0-5.523-4.477-10-10-10s-10,4.477-10,10v54C246,69.523,250.477,74,256,74z"/><path d="M84.929,99.071C86.881,101.024,89.441,102,92,102s5.119-0.976,7.071-2.929c3.905-3.905,3.905-10.237,0-14.143l-56-56  c-3.905-3.905-10.237-3.905-14.143,0c-3.905,3.905-3.905,10.237,0,14.143L84.929,99.071z"/><path d="M398.871,123.129c2.559,0,5.119-0.976,7.071-2.929l52.254-52.254c3.905-3.905,3.905-10.237,0-14.143  c-3.905-3.905-10.237-3.905-14.143,0l-52.254,52.254c-3.905,3.905-3.905,10.237,0,14.143  C393.752,122.153,396.312,123.129,398.871,123.129z"/><path d="M476,46c2.63,0,5.21-1.07,7.07-2.93S486,38.63,486,36s-1.07-5.21-2.93-7.07C481.21,27.07,478.63,26,476,26  s-5.21,1.07-7.07,2.93C467.07,30.79,466,33.37,466,36s1.07,5.21,2.93,7.07C470.79,44.93,473.37,46,476,46z"/><path d="M424.22,414.11c-3.905-3.905-10.237-3.905-14.142,0s-3.906,10.237,0,14.142l60.472,60.473  c1.953,1.953,4.512,2.929,7.071,2.929c2.559,0,5.119-0.977,7.071-2.929c3.905-3.905,3.906-10.237,0-14.142L424.22,414.11z"/><path d="M98.921,397.267L51.927,444.26c-3.905,3.905-3.905,10.237,0,14.143c1.953,1.953,4.512,2.929,7.071,2.929  s5.119-0.976,7.071-2.929l46.994-46.994c3.905-3.905,3.905-10.237,0-14.143C109.158,393.362,102.826,393.362,98.921,397.267z"/><path d="M30.42,469.92c-2.64,0-5.21,1.06-7.08,2.92c-1.86,1.86-2.92,4.44-2.92,7.08c0,2.63,1.06,5.21,2.92,7.07  c1.87,1.86,4.45,2.93,7.08,2.93c2.62,0,5.2-1.07,7.07-2.93c1.86-1.86,2.93-4.44,2.93-7.07c0-2.64-1.07-5.22-2.93-7.08  C35.62,470.98,33.05,469.92,30.42,469.92z"/><path d="M256,411.167c-5.523,0-10,4.477-10,10V502c0,5.523,4.477,10,10,10c5.523,0,10-4.477,10-10v-80.833  C266,415.645,261.523,411.167,256,411.167z"/><path d="M502,246h-27.014c-5.523,0-10,4.477-10,10c0,5.523,4.477,10,10,10H502c5.523,0,10-4.477,10-10S507.523,246,502,246z"/><path d="M37.84,256c0-5.523-4.477-10-10-10H10c-5.523,0-10,4.477-10,10c0,5.523,4.477,10,10,10h17.84  C33.363,266,37.84,261.523,37.84,256z"/><path d="M173.286,82.442c1.595,3.851,5.318,6.176,9.243,6.176c1.275,0,2.572-0.245,3.823-0.764  c5.103-2.113,7.525-7.963,5.412-13.065l-20.665-49.89c-2.114-5.102-7.964-7.527-13.065-5.412c-5.103,2.113-7.525,7.963-5.412,13.065  L173.286,82.442z"/><path d="M15.093,167.037l22.804,9.445c1.251,0.519,2.547,0.764,3.823,0.764c3.924,0,7.648-2.325,9.243-6.176  c2.113-5.103-0.31-10.952-5.412-13.065l-22.804-9.445c-5.102-2.112-10.952,0.31-13.065,5.412S9.991,164.924,15.093,167.037z"/><path d="M329.494,78.569c1.252,0.519,2.548,0.764,3.823,0.764c3.924,0,7.647-2.325,9.243-6.175l13.392-32.331  c2.114-5.103-0.31-10.952-5.412-13.066c-5.104-2.112-10.952,0.31-13.066,5.412l-13.392,32.33  C321.968,70.606,324.392,76.456,329.494,78.569z"/><path d="M485.25,344.04c-2.63,0-5.21,1.07-7.07,2.93c-1.87,1.86-2.93,4.44-2.93,7.07c0,2.64,1.06,5.21,2.93,7.07  c1.86,1.86,4.44,2.93,7.07,2.93s5.21-1.07,7.07-2.93s2.93-4.43,2.93-7.07c0-2.63-1.07-5.21-2.93-7.07  C490.46,345.11,487.88,344.04,485.25,344.04z"/><path d="M197.715,395.099c-5.101-2.113-10.952,0.31-13.065,5.412l-30.173,72.843c-2.114,5.102,0.31,10.952,5.412,13.065  c1.251,0.519,2.547,0.764,3.823,0.764c3.924,0,7.647-2.325,9.243-6.176l30.173-72.843  C205.241,403.063,202.818,397.212,197.715,395.099z"/><path d="M347.958,451.875c-2.114-5.103-7.964-7.527-13.065-5.412c-5.103,2.113-7.526,7.963-5.412,13.065l11.421,27.572  c1.595,3.852,5.318,6.176,9.243,6.176c1.275,0,2.572-0.245,3.823-0.764c5.103-2.113,7.526-7.963,5.412-13.065L347.958,451.875z"/><path d="M479.448,152.621l-24.958,10.338c-5.103,2.113-7.526,7.963-5.412,13.065c1.595,3.851,5.318,6.176,9.243,6.176  c1.275,0,2.572-0.245,3.823-0.764l24.958-10.338c5.103-2.113,7.526-7.963,5.412-13.065S484.548,150.506,479.448,152.621z"/><path d="M28.729,360.143c1.275,0,2.572-0.245,3.823-0.764l16.482-6.827c5.103-2.114,7.526-7.963,5.412-13.065  c-2.114-5.103-7.965-7.527-13.065-5.412l-16.482,6.827c-5.103,2.114-7.526,7.963-5.412,13.065  C21.082,357.818,24.805,360.143,28.729,360.143z"/></g></defs><g fi:class="KUsePattern"><pattern id="pattern_L1_2" width="350" height="350" patternUnits="userSpaceOnUse"><use xlink:href="#L1_2" x="-350" y="-350"/><use xlink:href="#L1_2" x="0" y="-350"/><use xlink:href="#L1_2" x="350" y="-350"/><use xlink:href="#L1_2" x="-350" y="0"/><use xlink:href="#L1_2" x="0" y="0"/><use xlink:href="#L1_2" x="350" y="0"/><use xlink:href="#L1_2" x="-350" y="350"/><use xlink:href="#L1_2" x="0" y="350"/><use xlink:href="#L1_2" x="350" y="350"/></pattern><rect x="0" y="0" width="100%" height="100%" fill="url(#pattern_L1_2)"/></g><g fi:class="KUsePattern"><pattern id="pattern_L1_4" width="350" height="350" patternUnits="userSpaceOnUse"><use xlink:href="#L1_4" x="-350" y="-350"/><use xlink:href="#L1_4" x="0" y="-350"/><use xlink:href="#L1_4" x="350" y="-350"/><use xlink:href="#L1_4" x="-350" y="0"/><use xlink:href="#L1_4" x="0" y="0"/><use xlink:href="#L1_4" x="350" y="0"/><use xlink:href="#L1_4" x="-350" y="350"/><use xlink:href="#L1_4" x="0" y="350"/><use xlink:href="#L1_4" x="350" y="350"/></pattern><rect x="0" y="0" width="100%" height="100%" fill="url(#pattern_L1_4)"/></g></svg>