<?xml version="1.0" encoding="iso-8859-1"?>
<!-- Generator: Adobe Illustrator 19.0.0, SVG Export Plug-In . SVG Version: 6.00 Build 0)  -->
<svg version="1.1" id="Capa_1" xmlns="http://www.w3.org/2000/svg" xmlns:xlink="http://www.w3.org/1999/xlink" x="0px" y="0px"
	 viewBox="0 0 512.001 512.001" style="enable-background:new 0 0 512.001 512.001;" xml:space="preserve">
<polygon style="fill:#F0F0FA;" points="406.927,502 104.82,502 155.071,300.75 356.676,300.75 "/>
<polygon style="fill:#878791;" points="155.071,300.75 356.676,300.75 367.227,343 144.521,343 "/>
<path style="fill:#FFFFFF;" d="M408.374,75.464C402.82,61.31,389.166,52,373.962,52h-8.62H148.581H138.04
	c-15.204,0-28.858,9.31-34.412,23.464l-93.46,238.19l82.248,34.928L141.075,221h2.854l11.142,79.75h201.606L367.735,221h3.192
	l48.659,127.581l82.248-34.928L408.374,75.464z"/>
<polygon style="fill:#BEBEBE;" points="259.583,132.188 204.083,52 305.408,52 "/>
<polygon style="fill:#737882;" points="148.581,52 174.833,10.127 331.293,10.127 363.087,52 "/>
<g>
	<polygon style="fill:#878791;" points="177.837,12.999 259.583,132.188 234.385,175.177 148.581,51.856 	"/>
	<polygon style="fill:#878791;" points="329.955,12.405 160.56,300.75 217.833,300.75 363.087,52 	"/>
	<polygon style="fill:#878791;" points="224.293,345.64 190.301,404.517 226.85,425.618 274.833,345.64 	"/>
</g>
<polygon style="fill:#737882;" points="290.485,343 247.706,343 303.736,438.5 303.736,438.5 334.333,417.398 "/>
<rect x="230.331" y="300.75" style="fill:#BEBEBE;" width="52.5" height="42.25"/>
<path d="M295.693,157.42c-2.64,0-5.21,1.07-7.069,2.93c-1.86,1.86-2.931,4.43-2.931,7.07c0,2.63,1.07,5.21,2.931,7.07
	c1.859,1.86,4.439,2.93,7.069,2.93c2.631,0,5.21-1.07,7.07-2.93s2.93-4.44,2.93-7.07s-1.069-5.21-2.93-7.07
	C300.904,158.49,298.324,157.42,295.693,157.42z"/>
<path d="M511.142,310l-93.46-238.19C410.577,53.701,393.416,42,373.961,42h-5.902L339.266,3.964C337.376,1.467,334.425,0,331.293,0
	H175.867c-3.38,0-6.531,1.708-8.377,4.539L143.068,42h-5.029c-19.454,0-36.615,11.701-43.721,29.811L0.859,310
	c-1.979,5.041,0.415,10.741,5.399,12.857l82.248,34.928c1.249,0.53,2.579,0.795,3.909,0.795c1.325,0,2.649-0.263,3.895-0.79
	c2.495-1.055,4.455-3.077,5.432-5.603l37.04-95.758l6.117,43.779l-49.781,199.37c-0.746,2.987-0.074,6.151,1.821,8.578
	c1.895,2.426,4.802,3.845,7.881,3.845h302.107c3.079,0,5.986-1.418,7.881-3.845c1.896-2.426,2.567-5.591,1.821-8.578
	l-49.781-199.372l6.212-44.802l37.192,96.765c0.973,2.531,2.933,4.559,5.43,5.618c1.247,0.529,2.576,0.794,3.904,0.794
	c1.33,0,2.66-0.265,3.909-0.795l82.248-34.928C510.727,320.741,513.121,315.042,511.142,310z M301.055,41.856h-52.72
	c-5.522,0-10,4.477-10,10s4.478,10,10,10h40.97l-30.374,51.701L194.765,20h119.131L301.055,41.856z M176.035,28.053l71.708,104.552
	l-14.099,23.999l-73.008-104.93L176.035,28.053z M86.816,335.339L23.03,308.251l9.717-24.765l38.158,17.143
	c1.33,0.598,2.722,0.881,4.092,0.881c3.816,0,7.462-2.197,9.128-5.904c2.263-5.038,0.014-10.957-5.024-13.22l-39.04-17.539
	l72.875-185.731C117.016,68.718,126.87,62,138.04,62h5.416l79.035,113.591l-60.436,102.873l-11.076-79.27
	c-0.764-5.47-5.826-9.281-11.287-8.52c-5.47,0.764-9.284,5.818-8.52,11.288l1.92,13.744L86.816,335.339z M354.421,333h-61.805
	c0.139-1.023,0.217-2.065,0.217-3.125v-16c0-1.06-0.078-2.102-0.217-3.125h56.249L354.421,333z M162.881,310.75h54.896h0.058h2.717
	c-0.139,1.023-0.217,2.065-0.217,3.125v16c0,1.06,0.078,2.102,0.217,3.125h-63.226L162.881,310.75z M241.979,353l7.687,13.102
	l-26.476,45.856l-19.229-11.102L231.59,353H241.979z M269.764,360.837c-0.002-0.004-0.004-0.008-0.007-0.011L265.166,353h4.543
	h15.063l36.219,61.453l-14.073,9.706L269.764,360.837z M272.833,313.875v16c0,1.723-1.402,3.125-3.125,3.125h-22.004h-4.246
	c-1.723,0-3.125-1.402-3.125-3.125v-16c0-1.723,1.402-3.125,3.125-3.125h26.25C271.431,310.75,272.833,312.152,272.833,313.875z
	 M117.624,492l4.994-20h58.752c5.522,0,10-4.477,10-10s-4.478-10-10-10h-53.759l24.72-99h56.166l-26.856,46.517
	c-2.762,4.783-1.123,10.899,3.66,13.66l36.549,21.102c1.575,0.909,3.294,1.342,4.99,1.341c3.456,0,6.817-1.793,8.67-5.001
	l25.795-44.678l33.807,57.62c1.406,2.397,3.747,4.101,6.46,4.702c0.717,0.159,1.442,0.237,2.165,0.237
	c2.011,0,3.994-0.607,5.678-1.768l30.598-21.102c4.319-2.979,5.602-8.789,2.938-13.31L307.987,353h51.429l34.707,139H117.624z
	 M425.206,335.33L378.74,214.438l2.958-21.328c0.759-5.471-3.062-10.52-8.532-11.279c-5.468-0.758-10.52,3.061-11.278,8.532
	l-13.92,100.388h-78.259h-26.25h-8.206L284,207.269c2.785-4.769,1.176-10.893-3.593-13.678c-4.773-2.786-10.895-1.175-13.679,3.593
	l-54.617,93.533l-33.945-0.197l64.423-109.66c0.143-0.207,0.294-0.407,0.422-0.625l24.638-42.031L332.385,28.01l18.703,24.707
	l-45.049,77.147c-2.785,4.769-1.176,10.893,3.593,13.678c1.586,0.926,3.321,1.366,5.033,1.366c3.439,0,6.786-1.775,8.646-4.959
	L368.828,62h5.133c11.17,0,21.023,6.718,25.104,17.116l72.875,185.731l-39.04,17.539c-5.038,2.263-7.287,8.182-5.024,13.22
	c1.666,3.707,5.311,5.904,9.128,5.904c1.37,0,2.762-0.283,4.092-0.881l38.158-17.143l9.717,24.765L425.206,335.33z"/>
<path d="M220.624,452c-2.63,0-5.21,1.07-7.07,2.93s-2.93,4.44-2.93,7.07s1.069,5.21,2.93,7.07s4.44,2.93,7.07,2.93
	s5.21-1.07,7.069-2.93c1.86-1.86,2.931-4.44,2.931-7.07s-1.07-5.21-2.931-7.07C225.833,453.07,223.254,452,220.624,452z"/>
<g>
</g>
<g>
</g>
<g>
</g>
<g>
</g>
<g>
</g>
<g>
</g>
<g>
</g>
<g>
</g>
<g>
</g>
<g>
</g>
<g>
</g>
<g>
</g>
<g>
</g>
<g>
</g>
<g>
</g>
</svg>
